<svg id="ag-logo" xmlns="http://www.w3.org/2000/svg" width="319" height="365" viewBox="0 0 319 365">
  <g id="Group_14" data-name="Group 14">
    <g id="Group_10" data-name="Group 10" transform="translate(-17.34 -114)">
      <g id="Group_11" data-name="Group 11">
        <g id="text">
          <path id="a" d="M110.34-26C88.854-7.027,69.428,2,52.34,2,42.288,2,34-.4,27.34-7s-10-15.074-10-25c0-13.445,5.44-26.257,17-37s37.174-24.158,76-42v-18c0-13.319-.555-21.545-2-25a19.651,19.651,0,0,0-8-9,26.182,26.182,0,0,0-14-4c-8.167,0-14.723,1.356-20,5-3.267,2.262-5,4.984-5,8,0,2.639,1.482,6.1,5,10,4.775,5.4,7,10.974,7,16,0,6.157-2.414,10.665-7,15a25.459,25.459,0,0,1-18,7c-7.916,0-13.66-2.225-19-7s-8-10.592-8-17c0-9.047,2.838-17.77,10-26s17.184-14.6,30-19a122.849,122.849,0,0,1,40-7c16.712,0,30.262,3.9,40,11s16.11,14.707,19,23c1.759,5.277,3,18.027,3,37v68c0,8.042-.628,12.927,0,15a10.56,10.56,0,0,0,3,5c1.257,1.005,3.367,1,5,1,3.267,0,6.607-2.351,10-7l5,5c-6.283,9.3-12.278,15.791-19,20s-14.456,6-23,6c-10.052,0-18.346-2.288-24-7S111.6-16.451,110.34-26Zm0-14V-99c-15.2,8.921-26.587,18.822-34,29-4.9,6.785-7,13.089-7,20a23.1,23.1,0,0,0,6,16c3.141,3.393,7.346,5,13,5C94.622-29,102.047-32.964,110.34-40Z" transform="translate(0 344)" fill="#707070"/>
          <path id="g" d="M126.34-174h59v21h-34c6.157,6.157,10.613,10.974,13,16a55.666,55.666,0,0,1,5,22c0,12.565-4.026,22.765-11,32a68.558,68.558,0,0,1-28,22c-12,5.215-22.7,8-32,8-.754,0-8.676-.372-23-1-5.654,0-10.168,1.293-14,5a19.666,19.666,0,0,0-6,14,13.451,13.451,0,0,0,5,11c3.455,2.89,9.21,4,17,4h33c26.387,0,44.074,3.22,54,9,14.2,8.042,22,20.288,22,37,0,10.68-3.466,20.267-10,29s-15.32,14.854-26,19c-16.209,6.157-34.891,9-56,9-15.832,0-29.932-.922-43-4s-22.346-7.534-28-13-9-10.969-9-17c0-5.78,2.665-11.414,7-16s12.189-8.859,24-12c-16.335-8.042-25-18.676-25-33,0-8.67,3.34-16.833,10-25s17.55-15.969,32-22c-16.837-6.157-29.461-13.948-37-24s-11-21.807-11-35c0-17.214,6.927-32.372,21-45s32.885-19,55-19C102.025-182,113.9-178.9,126.34-174Zm-33,4c-7.288,0-12.974,3.649-18,11s-8,22.88-8,46c0,18.722,3.037,31.026,8,38s10.215,11,17,11c7.539,0,13.974-3.089,19-10s8-21.021,8-41c0-22.492-3.346-37.833-9-46A19.267,19.267,0,0,0,93.34-170Zm-11,196c-12.816,0-20.854.864-25,3-7.162,3.9-11,9.34-11,16,0,6.408,3.587,11.785,11,17s21.519,8,42,8c17.465,0,31.011-2.351,41-7s15-10.581,15-19a11.881,11.881,0,0,0-3-8c-3.393-3.77-8.152-6.618-15-8S111.993,26,82.34,26Z" transform="translate(150 396)" fill="#707070"/>
        </g>
        <path id="crown" d="M129.34,71.75a11.755,11.755,0,0,1,0,2l-9,33c-.418,1.672-1.277,2.991-3,3h-100c-1.732,0-2.582-1.32-3-3l-9-33a2.808,2.808,0,0,1,0-1c-3.209-1.011-5-4.461-5-8a8.067,8.067,0,0,1,8-8c4.367,0,7,3.633,7,8,0,2.459-.236,4.546-2,6l10,11a14.033,14.033,0,0,0,10,4c4.406,0,8.354-2.494,11-6l17-22c-1.434-1.433-2-3.817-2-6a8,8,0,0,1,16,0,6.642,6.642,0,0,1-2,5h0l17,23a13.687,13.687,0,0,0,21,2l10-11a7.618,7.618,0,0,1-3-6,8,8,0,0,1,16,0A7.093,7.093,0,0,1,129.34,71.75Zm-9,50a4.174,4.174,0,0,0-4-4h-98c-2.083,0-3,1.917-3,4v9c0,2.083.917,4,3,4h98a4.174,4.174,0,0,0,4-4Z" transform="translate(177 70.25)" fill="#707070"/>
      </g>
    </g>
  </g>
</svg>
